<svg xmlns="http://www.w3.org/2000/svg" xmlns:xlink="http://www.w3.org/1999/xlink" width="748" height="384" viewBox="0 0 748 384">
  <defs>
    <clipPath id="clip-path">
      <rect id="Rectangle_2150" data-name="Rectangle 2150" width="748" height="380" transform="translate(350 1675)" fill="none" stroke="#0b6b37" stroke-width="1" stroke-dasharray="10" opacity="0.5"/>
    </clipPath>
    <clipPath id="clip-path-2">
      <rect id="Rectangle_2162" data-name="Rectangle 2162" width="166" height="380" transform="translate(350 1675)" fill="none" stroke="#c7926b" stroke-width="1" stroke-dasharray="10" opacity="0.5"/>
    </clipPath>
  </defs>
  <g id="round" transform="translate(-350 -1675)">
    <g id="Mask_Group_19" data-name="Mask Group 19" clip-path="url(#clip-path)">
      <g id="Mask_Group_20" data-name="Mask Group 20" opacity="0.2" clip-path="url(#clip-path-2)">
        <circle id="Ellipse_323" data-name="Ellipse 323" cx="366" cy="366" r="366" transform="translate(358 1689)" fill="none" stroke="#c7926b" stroke-width="11"/>
      </g>
      <g id="Ellipse_356" data-name="Ellipse 356" transform="translate(358 1689)" fill="none" stroke="#83b296" stroke-width="1" stroke-dasharray="9">
        <circle cx="366" cy="366" r="366" stroke="none"/>
        <circle cx="366" cy="366" r="365.5" fill="none"/>
      </g>
    </g>
    <g id="Year_Ellipse_355" data-name="Year Ellipse 355">
    <circle id="Ellipse_334" data-name="Ellipse 334" cx="5" cy="5" r="5" transform="translate(353 2049)" fill="#83b296"/>
      <circle id="Ellipse_333" data-name="Ellipse 333" cx="5" cy="5" r="5" transform="translate(1086 2049)" fill="#83b296"/>
      
      <circle id="Ellipse_340" data-name="Ellipse 340" cx="5" cy="5" r="5" transform="translate(377 1919)" fill="#83b296"/>
      <circle id="Ellipse_350" data-name="Ellipse 350" cx="5" cy="5" r="5" transform="translate(1052 1898)" fill="#83b296"/>
      <circle id="Ellipse_347" data-name="Ellipse 347" cx="5" cy="5" r="5" transform="translate(358 1988)" fill="#83b296"/>
      <circle id="Ellipse_349" data-name="Ellipse 349" cx="5" cy="5" r="5" transform="translate(1074 1967)" fill="#83b296"/>
      <circle id="Ellipse_341" data-name="Ellipse 341" cx="5" cy="5" r="5" transform="translate(409 1855)" fill="#83b296"/>
      <circle id="Ellipse_351" data-name="Ellipse 351" cx="5" cy="5" r="5" transform="translate(1016 1837)" fill="#83b296"/>
      <circle id="Ellipse_342" data-name="Ellipse 342" cx="5" cy="5" r="5" transform="translate(454 1798)" fill="#83b296"/>
      <circle id="Ellipse_343" data-name="Ellipse 343" cx="5" cy="5" r="5" transform="translate(508 1751)" fill="#83b296"/>
      <circle id="Ellipse_353" data-name="Ellipse 353" cx="5" cy="5" r="5" transform="translate(911 1738)" fill="#83b296"/>
      <circle id="Ellipse_344" data-name="Ellipse 344" cx="5" cy="5" r="5" transform="translate(570 1716)" fill="#83b296"/>
      <circle id="Ellipse_354" data-name="Ellipse 354" cx="5" cy="5" r="5" transform="translate(847 1707)" fill="#83b296"/>
      <circle id="Ellipse_346" data-name="Ellipse 346" cx="5" cy="5" r="5" transform="translate(639 1693)" fill="#83b296"/>
      <circle id="Ellipse_355" data-name="Ellipse 355" cx="5" cy="5" r="5" transform="translate(777 1689)" fill="#83b296"/>
      <circle id="Ellipse_348" data-name="Ellipse 348" cx="5" cy="5" r="5" transform="translate(710 1684)" fill="#83b296"/>
      <circle id="Ellipse_362" data-name="Ellipse 362" cx="5" cy="5" r="5" transform="translate(968 1782)" fill="#83b296"/>
    </g>
  </g>
</svg>
